:SAMPLES-PER-SECOND 30
:FULLY-SPECIFIED
:DEGREES
324
root  -13.6738 34.7727 28.6632 -177.806 -12.8195 175.736
RightUpLeg  -5.55143 4.50466 -2.4713
RightLeg  29.0189 -9.36466 -4.4101
RightFoot  7.51729 0.124609 -1.51891
RightToes  -48.0674 -0.28592 -0.356015
Spine  3.10873 -2.51302 -0.501854
Spine1  4.94445 -4.58778 -2.57438
HEad  4.7042 -10.0433 6.51386
LeftShoulder1  0 -2.42657e-020 -4.95415e-022
LeftArm  42.0944 -61.8081 -116.16
LeftForeArm  72.2615 -78.0283 -57.0462
LeftHand  -0.423703 -9.52875 4.7138
RightShoulder  0 2.42657e-020 1.07489e-018
RightArm  -43.1709 19.0152 73.9317
RightForeArm  -164.857 60.6709 161.301
RightHand  -7.23291 13.9462 -54.3069
LeftUpLeg  -11.9851 -15.9729 4.19561
LeftLeg  33.6618 4.55874 2.62101
LeftFoot  2.4877 -0.00381857 0.175859
LeftToes  5.11888 9.37529e-007 1.1992e-007
325
root  -11.5232 35.6727 28.8393 -177.268 -12.2964 176.974
RightUpLeg  -3.24828 -3.39399 -1.36792
RightLeg  19.8636 5.01443 1.45192
RightFoot  14.2802 -0.100139 1.17688
RightToes  -46.349 -0.271083 -0.348107
Spine  2.54248 -2.19434 -0.31713
Spine1  3.82602 -4.1067 -1.8011
HEad  6.5502 -9.5039 6.30781
LeftShoulder1  0 -2.42657e-020 -4.95415e-022
LeftArm  29.0387 -56.3541 -105.715
LeftForeArm  68.5477 -78.1952 -58.3691
LeftHand  -0.45719 -6.47934 7.70206
RightShoulder  0 2.42657e-020 1.07489e-018
RightArm  -38.7735 20.38 72.2884
RightForeArm  -165.964 67.2275 154.715
RightHand  -7.27672 14.6673 -52.2352
LeftUpLeg  -7.91921 -8.31815 0.393745
LeftLeg  31.4797 -1.34314 -0.711926
LeftFoot  12.2755 0.040901 -0.380356
LeftToes  -17.3638 9.37529e-007 1.1992e-007
326
root  -9.36439 36.1447 29.2118 -176.241 -9.0954 178.45
RightUpLeg  -3.8083 -5.3893 -1.03375
RightLeg  16.171 23.7252 5.10359
RightFoot  19.0987 -1.34159 8.33961
RightToes  -62.1575 -0.415009 -0.403391
Spine  1.93455 -1.5175 0.057663
Spine1  2.67346 -2.99511 -0.513483
HEad  8.21414 -7.4881 4.87753
LeftShoulder1  0 -2.42657e-020 -4.95415e-022
LeftArm  14.5014 -50.7256 -93.5378
LeftForeArm  66.1691 -78.4912 -60.9301
LeftHand  -0.369449 -4.34553 9.35934
RightShoulder  0 2.42657e-020 1.07489e-018
RightArm  -37.218 25.076 72.093
RightForeArm  -179.769 76.0152 134.278
RightHand  -7.64956 17.8141 -45.849
LeftUpLeg  -5.01915 1.85678 -1.86891
LeftLeg  29.2116 -10.3998 -4.93124
LeftFoot  19.9253 0.712769 -4.05616
LeftToes  -38.3203 9.37529e-007 1.1992e-007
327
root  -7.2861 36.2099 29.6498 -175.704 -6.6324 179.319
RightUpLeg  -5.13319 -0.0715968 -1.83977
RightLeg  17.4149 24.7705 5.85804
RightFoot  15.5025 -0.92465 7.16254
RightToes  -59.1473 -0.386514 -0.395961
Spine  1.44788 -1.4556 0.437729
Spine1  1.7824 -3.0171 0.597767
HEad  10.1088 -4.10312 2.77065
LeftShoulder1  0 -2.42657e-020 -4.95415e-022
LeftArm  0.184407 -42.2074 -80.9085
LeftForeArm  70.9851 -79.3293 -70.8802
LeftHand  -0.226636 -2.15658 11.6645
RightShoulder  0 2.42657e-020 1.07489e-018
RightArm  -34.3755 31.0018 70.8705
RightForeArm  123.634 79.8284 82.3654
RightHand  -4.27454 22.5709 -20.8211
LeftUpLeg  -3.29671 9.96049 -3.89212
LeftLeg  29.2654 -21.4962 -9.95401
LeftFoot  19.7068 1.49043 -8.5655
LeftToes  -48.6971 9.37529e-007 1.1992e-007
328
root  -5.33709 35.8279 30.0943 -175.766 -6.93809 179.968
RightUpLeg  -5.58529 -0.02722 -4.26622
RightLeg  20.0807 12.011 3.50581
RightFoot  13.4214 -0.292954 2.86679
RightToes  -53.854 -0.337495 -0.379307
Spine  1.51163 -1.86332 0.686596
Spine1  1.91482 -3.8096 1.11514
HEad  10.9544 -1.71506 2.3688
LeftShoulder1  0 -2.42657e-020 -4.95415e-022
LeftArm  -9.10662 -33.3018 -71.9998
LeftForeArm  76.0584 -79.6622 -77.4836
LeftHand  -0.162561 -1.44169 12.5562
RightShoulder  0 2.42657e-020 1.07489e-018
RightArm  -30.1585 35.0021 66.236
RightForeArm  72.1378 73.7641 37.5448
RightHand  1.28717 14.1682 10.7047
LeftUpLeg  -1.80709 12.6715 -5.78448
LeftLeg  29.7625 -30.7229 -14.043
LeftFoot  17.1192 1.70784 -11.3107
LeftToes  -55.9484 9.37529e-007 1.1992e-007
329
root  -3.33667 35.0646 30.587 -175.893 -8.36425 -178.49
RightUpLeg  -5.372 -0.547661 -6.75137
RightLeg  22.461 0.124415 0.0395978
RightFoot  13.1578 0.0453241 -0.015442
RightToes  -47.138 -0.277866 -0.351793
Spine  2.26614 -1.50514 1.09472
Spine1  3.37867 -3.02137 1.79796
HEad  7.89298 -2.43367 3.66687
LeftShoulder1  0 -2.42657e-020 -4.95415e-022
LeftArm  -12.9646 -27.5805 -67.0489
LeftForeArm  77.2373 -79.7466 -79.8982
LeftHand  -0.211386 -1.99695 11.7545
RightShoulder  0 2.42657e-020 1.07489e-018
RightArm  -25.0742 30.7862 56.7362
RightForeArm  61.0228 73.8803 37.9351
RightHand  2.00396 13.3821 17.337
LeftUpLeg  -0.77868 10.125 -6.44835
LeftLeg  26.1599 -24.5181 -9.74582
LeftFoot  15.3554 1.01887 -7.54712
LeftToes  -42.4591 9.37529e-007 1.1992e-007
330
root  -1.32454 33.9517 31.1218 -175.786 -9.84595 -177.34
RightUpLeg  -5.27934 -2.29395 -10.758
RightLeg  24.6116 -6.24339 -2.3844
RightFoot  12.4797 0.19839 -1.43668
RightToes  -40.4611 -0.222177 -0.317712
Spine  3.09782 -0.785225 1.60861
Spine1  5.10361 -1.47759 2.61514
HEad  2.73237 -4.34812 4.16837
LeftShoulder1  0 -2.42657e-020 -4.95415e-022
LeftArm  -15.0182 -22.25 -64.1542
LeftForeArm  84.2784 -79.8765 -86.204
LeftHand  -0.20435 -1.89066 12.0104
RightShoulder  0 2.42657e-020 1.07489e-018
RightArm  -19.8838 22.4399 48.2924
RightForeArm  80.1989 78.2283 58.6653
RightHand  1.05 15.796 7.93138
LeftUpLeg  -0.564431 6.77503 -6.02999
LeftLeg  25.1318 -14.8742 -5.76217
LeftFoot  -0.871598 0.00162045 0.213032
LeftToes  4.26542 9.37529e-007 1.1992e-007
331
root  0.639469 32.6675 31.7268 -175.693 -12.3017 -178.105
RightUpLeg  -4.26743 -5.3856 -17.3617
RightLeg  25.7686 -10.6248 -4.27995
RightFoot  10.2885 0.212228 -1.9794
RightToes  -35.8354 -0.186099 -0.290409
Spine  3.82124 -0.729953 1.62913
Spine1  6.50118 -1.24715 2.42119
HEad  -1.01748 -5.33447 3.89591
LeftShoulder1  0 -2.42657e-020 -4.95415e-022
LeftArm  -16.432 -14.9791 -61.0309
LeftForeArm  87.874 -79.8952 -89.1747
LeftHand  -0.189414 -1.74065 12.0978
RightShoulder  0 2.42657e-020 1.07489e-018
RightArm  -14.4693 14.8921 45.147
RightForeArm  106.521 79.846 84.4448
RightHand  0.0773904 17.097 0.885185
LeftUpLeg  -3.45287 1.76936 -5.92626
LeftLeg  29.6977 -8.2538 -4.01164
LeftFoot  -13.8797 0.264741 2.17476
LeftToes  7.46486 9.37529e-007 1.1992e-007
332
root  2.66932 31.524 32.3342 -175.888 -15.7921 -179.251
RightUpLeg  -1.76094 -6.46333 -23.5015
RightLeg  25.6536 -15.823 -6.27481
RightFoot  9.03074 0.233733 -2.5813
RightToes  -31.6487 -0.155437 -0.26326
Spine  4.85549 -0.919185 1.27731
Spine1  8.41562 -1.52606 1.52109
HEad  -4.38509 -6.22128 5.17335
LeftShoulder1  0 -2.42657e-020 -4.95415e-022
LeftArm  -16.2475 -9.32561 -59.5977
LeftForeArm  73.0133 -79.3117 -70.6219
LeftHand  -0.260033 -2.49544 11.558
RightShoulder  0 2.42657e-020 1.07489e-018
RightArm  -12.004 7.4347 47.2911
RightForeArm  115.5 79.8663 93.7407
RightHand  0.0904486 18.3075 0.931647
LeftUpLeg  -9.58804 -5.79486 -4.79259
LeftLeg  40.0012 -5.08414 -3.73246
LeftFoot  -21.4589 0.432614 2.28282
LeftToes  0.919324 9.37529e-007 1.1992e-007
333
root  4.8064 30.6717 32.9826 -174.714 -17.2035 179.349
RightUpLeg  -1.88329 -3.84026 -28.1153
RightLeg  25.7012 -17.0479 -6.75759
RightFoot  12.4919 0.466028 -3.87836
RightToes  -32.8569 -0.16408 -0.271323
Spine  5.59069 -0.210942 0.751994
Spine1  9.92096 -0.064204 0.597926
HEad  -8.17519 -7.59503 6.66459
LeftShoulder1  0 -2.42657e-020 -4.95415e-022
LeftArm  -15.4287 -5.27703 -61.1544
LeftForeArm  52.0057 -76.3684 -47.1452
LeftHand  -0.191511 -2.31038 9.13312
RightShoulder  0 2.42657e-020 1.07489e-018
RightArm  -11.7639 0.14884 52.0598
RightForeArm  100.592 79.6733 77.9377
RightHand  0.176119 17.6732 1.50339
LeftUpLeg  -17.6042 -8.00255 -2.63285
LeftLeg  50.1691 -3.92447 -4.13079
LeftFoot  -22.9835 0.448227 2.20446
LeftToes  -7.93092 9.37529e-007 1.1992e-007
334
root  7.08288 30.089 33.5707 -172.69 -16.7618 177.707
RightUpLeg  -3.83765 0.618261 -31.5841
RightLeg  24.5028 -10.332 -3.90232
RightFoot  16.1371 0.458763 -2.85766
RightToes  -53.1064 -0.330704 -0.376593
Spine  5.81576 0.570897 0.0499264
Spine1  10.4781 1.53546 -0.540965
HEad  -10.7053 -7.71424 7.15167
LeftShoulder1  0 -2.42657e-020 -4.95415e-022
LeftArm  -15.2661 0.0288195 -63.3119
LeftForeArm  34.6779 -71.6325 -32.3105
LeftHand  -0.119592 -1.61978 8.10943
RightShoulder  0 2.42657e-020 1.07489e-018
RightArm  -11.7649 -3.55926 59.0001
RightForeArm  60.5809 74.5639 40.0684
RightHand  -0.119959 17.3771 -0.415115
LeftUpLeg  -23.189 -7.03078 0.275398
LeftLeg  54.0545 -4.58383 -5.52102
LeftFoot  -22.8519 0.556175 2.75136
LeftToes  -17.1109 9.37529e-007 1.1992e-007
